<svg width="52" height="52" viewBox="0 0 52 52" fill="none" xmlns="http://www.w3.org/2000/svg">
<path d="M26 52C40.3594 52 52 40.3594 52 26C52 11.6406 40.3594 0 26 0C11.6406 0 0 11.6406 0 26C0 40.3594 11.6406 52 26 52Z" fill="#F3BA2F"/>
<path d="M19.6885 23.4065L26 17.095L32.3147 23.4097L35.9872 19.7372L26 9.75L16.016 19.734L19.6885 23.4065ZM9.75 26L13.4225 22.3275L17.095 26L13.4225 29.6725L9.75 26ZM19.6885 28.5935L26 34.905L32.3147 28.5903L35.9872 32.2611L26 42.25L16.016 32.266L16.0111 32.2611L19.6885 28.5935ZM34.905 26L38.5775 22.3275L42.25 26L38.5775 29.6725L34.905 26ZM29.7245 25.9967H29.7278V26L26 29.7278L22.2771 26.0065L22.2706 26L22.2771 25.9951L22.9287 25.3419L23.2456 25.025L26 22.2723L29.7261 25.9984L29.7245 25.9967Z" fill="white"/>
</svg>
