<svg width="52" height="52" viewBox="0 0 52 52" fill="none" xmlns="http://www.w3.org/2000/svg">
<g clip-path="url(#clip0_2_864)">
<path d="M52 26C52 31.1423 50.4751 36.1691 47.6182 40.4448C44.7612 44.7205 40.7006 48.053 35.9497 50.0209C31.1988 51.9887 25.9711 52.5036 20.9276 51.5004C15.8841 50.4972 11.2513 48.0209 7.61517 44.3848C3.97901 40.7486 1.50275 36.1159 0.499533 31.0723C-0.503682 26.0288 0.0112043 20.8011 1.97908 16.0502C3.94696 11.2994 7.27945 7.23871 11.5551 4.38179C15.8308 1.52487 20.8576 0 26 0C32.8956 0 39.5088 2.73928 44.3847 7.61522C49.2607 12.4912 52 19.1044 52 26Z" fill="#F7931A"/>
<path fill-rule="evenodd" clip-rule="evenodd" d="M18.4789 11.8728L24.4542 13.4729L25.7896 8.49512L28.7773 9.30584L27.4938 14.078L29.9307 14.7328L31.2166 9.90857L34.2562 10.7217L32.9467 15.5718C32.9467 15.5718 37.9104 16.6709 39.078 20.708C40.2456 24.7451 36.5111 26.8653 35.3576 26.9457C35.3576 26.9457 39.7067 29.3306 38.2129 34.0224C36.7191 38.7142 32.1336 39.5533 27.3095 38.4778L26 43.5077L22.9604 42.6946L24.2958 37.7428L21.8849 37.0857L20.5495 42.0729L17.5335 41.2622L18.8713 36.2986L12.7376 34.644L14.2835 31.212C14.2835 31.212 16.0136 31.6848 16.6684 31.8408C17.3231 31.9968 17.7438 31.316 17.9282 30.6353C18.1125 29.9546 20.8898 18.6729 21.1522 17.744C21.4145 16.8151 21.3082 16.0895 20.2067 15.8035C19.1053 15.5175 17.6067 15.0708 17.6067 15.0708L18.4789 11.8728ZM24.5062 26.8133L22.8516 33.3913C22.8516 33.3913 31.0558 36.3529 32.1053 32.1858C33.1547 28.0188 24.5062 26.8133 24.5062 26.8133ZM25.2673 23.6933L26.8911 17.666C26.8911 17.666 33.9158 18.9235 33.0507 22.2775C32.1856 25.6315 28.0445 24.3457 25.2673 23.6933Z" fill="white"/>
</g>
<defs>
<clipPath id="clip0_2_864">
<rect width="52" height="52" fill="white"/>
</clipPath>
</defs>
</svg>
