<svg width="64" height="64" viewBox="0 0 64 64" fill="none" xmlns="http://www.w3.org/2000/svg">
<g clip-path="url(#clip0_2_1088)">
<path fill-rule="evenodd" clip-rule="evenodd" d="M0 32C0 23.5131 3.37142 15.3737 9.37258 9.37258C15.3737 3.37142 23.5131 0 32 0C40.4869 0 48.6263 3.37142 54.6274 9.37258C60.6286 15.3737 64 23.5131 64 32C64 40.4869 60.6286 48.6263 54.6274 54.6274C48.6263 60.6286 40.4869 64 32 64C23.5131 64 15.3737 60.6286 9.37258 54.6274C3.37142 48.6263 0 40.4869 0 32H0ZM29.8667 32V12.8H34.1333V31.1168L46.3104 43.2896L43.2896 46.3104L30.4896 33.5104C30.2914 33.3121 30.1344 33.0765 30.0275 32.8173C29.9206 32.5581 29.8659 32.2804 29.8667 32Z" fill="url(#paint0_linear_2_1088)"/>
<path d="M46.3104 43.2896L45.9569 43.6432L45.9568 43.6432L46.3104 43.2896ZM46.3104 43.2896L45.9568 42.936L45.9568 42.9361L46.3104 43.2896ZM29.8667 12.3H29.3667L29.3667 31.9987L29.8667 32H29.3667V31.9995C29.3659 32.3454 29.4333 32.6881 29.5653 33.008C29.6973 33.328 29.8912 33.6189 30.1359 33.8638L30.136 33.864L42.936 46.664L43.2896 47.0175L43.6432 46.664L46.664 43.6432L47.0176 43.2895L46.6639 42.936L34.6333 30.9096V12.8V12.3H34.1333H29.8667ZM0.5 32C0.5 23.6457 3.81874 15.6335 9.72614 9.72614C15.6335 3.81874 23.6457 0.5 32 0.5C40.3543 0.5 48.3665 3.81874 54.2739 9.72614C60.1813 15.6335 63.5 23.6457 63.5 32C63.5 40.3543 60.1813 48.3665 54.2739 54.2739C48.3665 60.1813 40.3543 63.5 32 63.5C23.6457 63.5 15.6335 60.1813 9.72614 54.2739C3.81874 48.3665 0.5 40.3543 0.5 32Z" stroke="url(#paint1_linear_2_1088)" stroke-opacity="0.5"/>
</g>
<defs>
<linearGradient id="paint0_linear_2_1088" x1="-1.25044e-07" y1="26.8108" x2="64" y2="26.8108" gradientUnits="userSpaceOnUse">
<stop stop-color="#38D5FF"/>
<stop offset="0.505208" stop-color="#802DFF"/>
<stop offset="1" stop-color="#F41FFE"/>
</linearGradient>
<linearGradient id="paint1_linear_2_1088" x1="-2.43818e-07" y1="28.5405" x2="64" y2="28.5405" gradientUnits="userSpaceOnUse">
<stop stop-color="white"/>
<stop offset="1" stop-color="white" stop-opacity="0"/>
</linearGradient>
<clipPath id="clip0_2_1088">
<rect width="64" height="64" fill="white"/>
</clipPath>
</defs>
</svg>
