<svg width="64" height="64" viewBox="0 0 64 64" fill="none" xmlns="http://www.w3.org/2000/svg">
<g clip-path="url(#clip0_2_829)">
<path d="M25.6 31.9996C25.6 30.3022 26.2743 28.6744 27.4745 27.4741C28.6747 26.2739 30.3026 25.5996 32 25.5996C33.6974 25.5996 35.3252 26.2739 36.5255 27.4741C37.7257 28.6744 38.4 30.3022 38.4 31.9996C38.4 33.697 37.7257 35.3249 36.5255 36.5251C35.3252 37.7253 33.6974 38.3996 32 38.3996C30.3026 38.3996 28.6747 37.7253 27.4745 36.5251C26.2743 35.3249 25.6 33.697 25.6 31.9996Z" fill="url(#paint0_linear_2_829)"/>
<path d="M26.1 31.9996C26.1 30.4348 26.7216 28.9341 27.828 27.8277C28.9345 26.7212 30.4352 26.0996 32 26.0996C33.5648 26.0996 35.0654 26.7212 36.1719 27.8277C37.2784 28.9341 37.9 30.4348 37.9 31.9996C37.9 33.5644 37.2784 35.0651 36.1719 36.1715C35.0654 37.278 33.5648 37.8996 32 37.8996C30.4352 37.8996 28.9345 37.278 27.828 36.1715C26.7216 35.0651 26.1 33.5644 26.1 31.9996Z" stroke="url(#paint1_linear_2_829)" stroke-opacity="0.5"/>
<path fill-rule="evenodd" clip-rule="evenodd" d="M0 14.9332C0 13.2358 0.674284 11.608 1.87452 10.4077C3.07475 9.20749 4.70261 8.5332 6.4 8.5332H57.6C59.2974 8.5332 60.9253 9.20749 62.1255 10.4077C63.3257 11.608 64 13.2358 64 14.9332V49.0665C64 50.7639 63.3257 52.3918 62.1255 53.592C60.9253 54.7923 59.2974 55.4665 57.6 55.4665H6.4C4.70261 55.4665 3.07475 54.7923 1.87452 53.592C0.674284 52.3918 0 50.7639 0 49.0665L0 14.9332ZM17.0667 17.0665H8.53333V25.5999H12.8V21.3332H17.0667V17.0665ZM51.2 21.3332H46.9333V17.0665H55.4667V25.5999H51.2V21.3332ZM32 21.3332C29.171 21.3332 26.4579 22.457 24.4575 24.4574C22.4571 26.4578 21.3333 29.1709 21.3333 31.9999C21.3333 34.8288 22.4571 37.542 24.4575 39.5423C26.4579 41.5427 29.171 42.6665 32 42.6665C34.829 42.6665 37.5421 41.5427 39.5425 39.5423C41.5429 37.542 42.6667 34.8288 42.6667 31.9999C42.6667 29.1709 41.5429 26.4578 39.5425 24.4574C37.5421 22.457 34.829 21.3332 32 21.3332ZM46.9333 42.6665V46.9332H55.4667V38.3999H51.2V42.6665H46.9333ZM8.53333 38.3999H12.8V42.6665H17.0667V46.9332H8.53333V38.3999Z" fill="url(#paint2_linear_2_829)"/>
<path d="M17.5667 17.0665V16.5665H17.0667H8.53333H8.03333V17.0665V25.5999V26.0999H8.53333H12.8H13.3V25.5999V21.8332H17.0667H17.5667V21.3332V17.0665ZM46.4333 21.3332V21.8332H46.9333H50.7V25.5999V26.0999H51.2H55.4667H55.9667V25.5999V17.0665V16.5665H55.4667H46.9333H46.4333V17.0665V21.3332ZM46.9333 42.1665H46.4333V42.6665V46.9332V47.4332H46.9333H55.4667H55.9667V46.9332V38.3999V37.8999H55.4667H51.2H50.7V38.3999V42.1665H46.9333ZM8.53333 37.8999H8.03333V38.3999V46.9332V47.4332H8.53333H17.0667H17.5667V46.9332V42.6665V42.1665H17.0667H13.3V38.3999V37.8999H12.8H8.53333ZM0.5 14.9332C0.5 13.3684 1.12161 11.8677 2.22807 10.7613C3.33453 9.65481 4.83522 9.0332 6.4 9.0332H57.6C59.1648 9.0332 60.6655 9.65481 61.7719 10.7613C62.8784 11.8677 63.5 13.3684 63.5 14.9332V49.0665C63.5 50.6313 62.8784 52.132 61.7719 53.2385C60.6655 54.3449 59.1648 54.9665 57.6 54.9665H6.4C4.83522 54.9665 3.33453 54.3449 2.22807 53.2385C1.12161 52.132 0.5 50.6313 0.5 49.0665V14.9332ZM32 20.8332C29.0384 20.8332 26.1981 22.0097 24.104 24.1038C22.0098 26.198 20.8333 29.0383 20.8333 31.9999C20.8333 34.9615 22.0098 37.8017 24.104 39.8959C26.1981 41.9901 29.0384 43.1665 32 43.1665C34.9616 43.1665 37.8019 41.9901 39.896 39.8959C41.9902 37.8017 43.1667 34.9615 43.1667 31.9999C43.1667 29.0383 41.9902 26.198 39.896 24.1038C37.8019 22.0097 34.9616 20.8332 32 20.8332Z" stroke="url(#paint3_linear_2_829)" stroke-opacity="0.5"/>
</g>
<defs>
<linearGradient id="paint0_linear_2_829" x1="25.6" y1="30.9618" x2="38.4" y2="30.9618" gradientUnits="userSpaceOnUse">
<stop stop-color="#38D5FF"/>
<stop offset="0.505208" stop-color="#802DFF"/>
<stop offset="1" stop-color="#F41FFE"/>
</linearGradient>
<linearGradient id="paint1_linear_2_829" x1="25.6" y1="31.3077" x2="38.4" y2="31.3077" gradientUnits="userSpaceOnUse">
<stop stop-color="white"/>
<stop offset="1" stop-color="white" stop-opacity="0"/>
</linearGradient>
<linearGradient id="paint2_linear_2_829" x1="-1.25044e-07" y1="28.1945" x2="64" y2="28.1945" gradientUnits="userSpaceOnUse">
<stop stop-color="#38D5FF"/>
<stop offset="0.505208" stop-color="#802DFF"/>
<stop offset="1" stop-color="#F41FFE"/>
</linearGradient>
<linearGradient id="paint3_linear_2_829" x1="-2.43818e-07" y1="29.4629" x2="64" y2="29.4629" gradientUnits="userSpaceOnUse">
<stop stop-color="white"/>
<stop offset="1" stop-color="white" stop-opacity="0"/>
</linearGradient>
<clipPath id="clip0_2_829">
<rect width="64" height="64" fill="white"/>
</clipPath>
</defs>
</svg>
