<svg width="52" height="52" viewBox="0 0 52 52" fill="none" xmlns="http://www.w3.org/2000/svg">
<g clip-path="url(#clip0_2_902)">
<path d="M26.0001 0C19.1298 0.0200409 12.5484 2.76587 7.70099 7.6345C2.85362 12.5031 0.136614 19.0965 0.146634 25.9668C0.156655 32.8371 2.89288 39.4225 7.75444 44.277C12.616 49.1315 19.2054 51.8581 26.0757 51.8581C32.946 51.8581 39.5354 49.1315 44.397 44.277C49.2585 39.4225 51.9947 32.8371 52.0048 25.9668C52.0148 19.0965 49.2978 12.5031 44.4504 7.6345C39.603 2.76587 33.0216 0.0200409 26.1513 0L26.0001 0Z" fill="#345D9D"/>
<path d="M26.4727 26.5813L24.1823 34.2725H36.3692C36.4498 34.2685 36.5303 34.2814 36.6056 34.3104C36.6808 34.3386 36.7498 34.3811 36.8088 34.4356C36.8674 34.4915 36.9148 34.5581 36.9483 34.6318C36.9838 34.7057 37.0031 34.7863 37.005 34.8682V35.0691L35.9438 38.7256C35.8983 38.899 35.7938 39.0512 35.6483 39.1558C35.5042 39.2616 35.3282 39.315 35.1496 39.3071H16.5005L19.6252 28.6707L16.1294 29.7296L16.9236 27.2927L20.4194 26.2315L24.8181 11.2696C24.8657 11.0973 24.9708 10.9463 25.1159 10.8418C25.2594 10.7361 25.4341 10.6812 25.6123 10.6858H30.3396C30.4202 10.6838 30.5005 10.6974 30.5759 10.726C30.6521 10.7537 30.722 10.7963 30.7816 10.8513C30.8412 10.9062 30.8887 10.9731 30.921 11.0475C30.9549 11.1218 30.9734 11.2022 30.9754 11.2838V11.4871L27.2669 24.0971L30.765 23.0358L30.0181 25.5744L26.4727 26.5813Z" fill="white"/>
</g>
<defs>
<clipPath id="clip0_2_902">
<rect width="52" height="52" fill="white"/>
</clipPath>
</defs>
</svg>
