<svg width="64" height="64" viewBox="0 0 64 64" fill="none" xmlns="http://www.w3.org/2000/svg">
<g clip-path="url(#clip0_2_849)">
<path d="M50.2742 0H13.7259L0.298705 22.3701C0.0774142 22.7391 -0.027149 23.1663 -0.00126008 23.5958C0.0246289 24.0252 0.17976 24.4368 0.443771 24.7765L30.3104 63.1765C30.5099 63.4335 30.7654 63.6414 31.0575 63.7845C31.3496 63.9275 31.6705 64.0019 31.9958 64.0019C32.321 64.0019 32.642 63.9275 32.9341 63.7845C33.2262 63.6414 33.4817 63.4335 33.6811 63.1765L63.5478 24.7765C63.8118 24.4368 63.9669 24.0252 63.9928 23.5958C64.0187 23.1663 63.9141 22.7391 63.6928 22.3701L50.2742 0Z" fill="url(#paint0_linear_2_849)"/>
<path d="M49.991 0.5L63.264 22.6273C63.4335 22.9098 63.5135 23.2369 63.4937 23.5657C63.4739 23.8944 63.3552 24.2095 63.1531 24.4696C63.1531 24.4696 63.153 24.4697 63.153 24.4697L33.2864 62.8696L33.2861 62.87C33.1334 63.0667 32.9378 63.2259 32.7142 63.3354C32.4905 63.445 32.2448 63.5019 31.9958 63.5019C31.7468 63.5019 31.501 63.445 31.2774 63.3354C31.0538 63.2259 30.8581 63.0667 30.7054 62.87L30.7051 62.8696L0.838561 24.4697C0.838523 24.4697 0.838485 24.4696 0.838447 24.4696C0.636383 24.2095 0.517651 23.8944 0.497834 23.5657C0.478016 23.237 0.558042 22.9099 0.727408 22.6275C0.727437 22.6274 0.727465 22.6274 0.727494 22.6273L14.0089 0.5H49.991Z" stroke="url(#paint1_linear_2_849)" stroke-opacity="0.5"/>
</g>
<defs>
<linearGradient id="paint0_linear_2_849" x1="-0.00512708" y1="26.8116" x2="63.9967" y2="26.8116" gradientUnits="userSpaceOnUse">
<stop stop-color="#38D5FF"/>
<stop offset="0.505208" stop-color="#802DFF"/>
<stop offset="1" stop-color="#F41FFE"/>
</linearGradient>
<linearGradient id="paint1_linear_2_849" x1="-0.0051272" y1="28.5414" x2="63.9967" y2="28.5414" gradientUnits="userSpaceOnUse">
<stop stop-color="white"/>
<stop offset="1" stop-color="white" stop-opacity="0"/>
</linearGradient>
<clipPath id="clip0_2_849">
<rect width="64" height="64" fill="white"/>
</clipPath>
</defs>
</svg>
