<svg width="64" height="64" viewBox="0 0 64 64" fill="none" xmlns="http://www.w3.org/2000/svg">
<g clip-path="url(#clip0_2_810)">
<path d="M23.4667 0.000360704C21.4767 -0.047226 19.4973 0.303627 17.6449 1.03228C15.7925 1.76093 14.1045 2.85267 12.6803 4.24328C11.256 5.63388 10.1242 7.29527 9.3515 9.12972C8.57877 10.9642 8.1807 12.9346 8.1807 14.9252C8.1807 16.9157 8.57877 18.8862 9.3515 20.7206C10.1242 22.555 11.256 24.2164 12.6803 25.607C14.1045 26.9976 15.7925 28.0894 17.6449 28.818C19.4973 29.5467 21.4767 29.8975 23.4667 29.85C25.4566 29.8975 27.4361 29.5467 29.2884 28.818C31.1408 28.0894 32.8288 26.9976 34.2531 25.607C35.6773 24.2164 36.8091 22.555 37.5818 20.7206C38.3546 18.8862 38.7526 16.9157 38.7526 14.9252C38.7526 12.9346 38.3546 10.9642 37.5818 9.12972C36.8091 7.29527 35.6773 5.63388 34.2531 4.24328C32.8288 2.85267 31.1408 1.76093 29.2884 1.03228C27.4361 0.303627 25.4566 -0.047226 23.4667 0.000360704V0.000360704ZM51.2 21.3337V29.867H42.6667V34.1337H51.2V42.667H55.4667V34.1337H64V29.867H55.4667V21.3337H51.2ZM32 38.3748H14.9333C10.9728 38.3748 7.17442 39.9481 4.37387 42.7486C1.57333 45.5492 0 49.3475 0 53.3081L0 63.962H46.9333V53.3081C46.9333 49.3475 45.36 45.5492 42.5595 42.7486C39.7589 39.9481 35.9606 38.3748 32 38.3748V38.3748Z" fill="url(#paint0_linear_2_810)"/>
<path d="M23.4786 29.3501L23.4667 29.3498L23.4547 29.3501C21.5314 29.3961 19.6183 29.057 17.8279 28.3527C16.0376 27.6485 14.4061 26.5933 13.0296 25.2493C11.653 23.9053 10.5591 22.2995 9.81229 20.5265C9.06544 18.7535 8.6807 16.849 8.6807 14.9252C8.6807 13.0013 9.06544 11.0968 9.81229 9.32382C10.5591 7.55081 11.653 5.94507 13.0296 4.60103C14.4061 3.257 16.0376 2.20183 17.8279 1.49758C19.6183 0.793327 21.5314 0.454225 23.4547 0.500218L23.4667 0.000360704L23.4786 0.500218C25.402 0.454225 27.3151 0.793327 29.1054 1.49758C30.8958 2.20183 32.5272 3.257 33.9038 4.60103C35.2803 5.94507 36.3742 7.55081 37.121 9.32382C37.8679 11.0968 38.2526 13.0013 38.2526 14.9252C38.2526 16.849 37.8679 18.7535 37.121 20.5265C36.3742 22.2995 35.2803 23.9053 33.9038 25.2493C32.5272 26.5933 30.8958 27.6485 29.1054 28.3527C27.3151 29.057 25.402 29.3961 23.4786 29.3501ZM51.2 30.367H51.7V29.867V21.8337H54.9667V29.867V30.367H55.4667H63.5V33.6337H55.4667H54.9667V34.1337V42.167H51.7V34.1337V33.6337H51.2H43.1667V30.367H51.2ZM4.72743 43.1022C7.4342 40.3954 11.1054 38.8748 14.9333 38.8748H32C35.828 38.8748 39.4991 40.3954 42.2059 43.1022C44.9127 45.809 46.4333 49.4801 46.4333 53.3081V63.462H0.5V53.3081C0.5 49.4801 2.02065 45.809 4.72743 43.1022Z" stroke="url(#paint1_linear_2_810)" stroke-opacity="0.5"/>
</g>
<defs>
<linearGradient id="paint0_linear_2_810" x1="-1.25044e-07" y1="26.7926" x2="64" y2="26.7926" gradientUnits="userSpaceOnUse">
<stop stop-color="#38D5FF"/>
<stop offset="0.505208" stop-color="#802DFF"/>
<stop offset="1" stop-color="#F41FFE"/>
</linearGradient>
<linearGradient id="paint1_linear_2_810" x1="-2.43818e-07" y1="28.5214" x2="64" y2="28.5214" gradientUnits="userSpaceOnUse">
<stop stop-color="white"/>
<stop offset="1" stop-color="white" stop-opacity="0"/>
</linearGradient>
<clipPath id="clip0_2_810">
<rect width="64" height="64" fill="white"/>
</clipPath>
</defs>
</svg>
