<svg width="65" height="65" viewBox="0 0 65 65" fill="none" xmlns="http://www.w3.org/2000/svg">
<g clip-path="url(#clip0_2_492)">
<path fill-rule="evenodd" clip-rule="evenodd" d="M30.9433 0.288724C31.2655 0.104638 31.6303 0.0078125 32.0014 0.0078125C32.3725 0.0078125 32.7373 0.104638 33.0595 0.288724L62.9262 17.3554C63.2527 17.5419 63.5241 17.8114 63.713 18.1366C63.9018 18.4618 64.0013 18.8311 64.0014 19.2071V22.2791C64.0015 31.6913 60.9353 40.8472 55.2668 48.361C49.5984 55.8748 41.6363 61.3374 32.5859 63.9218C32.2039 64.0306 31.799 64.0306 31.4169 63.9218C22.3672 61.3361 14.406 55.8733 8.73771 48.3597C3.06946 40.8462 0.00268528 31.6909 0.00140381 22.2791L0.00140381 19.2071C0.0015251 18.8311 0.101036 18.4618 0.289854 18.1366C0.478672 17.8114 0.750088 17.5419 1.0766 17.3554L30.9433 0.288724ZM30.1753 45.7074L48.5987 22.6717L45.2707 20.0093L29.5609 39.6402L18.4334 30.3687L15.7027 33.6455L30.1753 45.7074Z" fill="url(#paint0_linear_2_492)"/>
<path d="M62.6781 17.7895L62.6782 17.7896C62.9282 17.9323 63.136 18.1387 63.2806 18.3877C63.4251 18.6366 63.5013 18.9193 63.5014 19.2071C63.5014 19.2072 63.5014 19.2072 63.5014 19.2073V22.2791C63.5015 31.5826 60.4707 40.6329 54.8677 48.0599C49.2647 55.4869 41.3947 60.8863 32.4489 63.4409C32.1564 63.5243 31.8464 63.5243 31.5539 63.4409C22.6088 60.8851 14.7396 55.4853 9.13686 48.0586C3.53406 40.6318 0.502685 31.5823 0.501404 22.2791C0.501404 22.2791 0.501404 22.2791 0.501404 22.2791L0.501404 19.2073C0.501404 19.2073 0.501404 19.2072 0.501404 19.2072C0.501404 19.2072 0.501404 19.2071 0.501404 19.2071C0.501525 18.9193 0.577711 18.6366 0.722249 18.3877C0.866813 18.1387 1.07462 17.9323 1.3246 17.7896L1.32467 17.7895L31.1913 0.722886C31.1913 0.722872 31.1913 0.722859 31.1913 0.722846C31.4381 0.581931 31.7173 0.507812 32.0014 0.507812C32.2855 0.507812 32.5648 0.581931 32.8115 0.722846C32.8115 0.722859 32.8115 0.722872 32.8115 0.722885L62.6781 17.7895ZM29.8552 46.0915L30.2471 46.4181L30.5657 46.0197L48.9892 22.9839L49.3015 22.5935L48.9111 22.2812L45.5831 19.6188L45.1927 19.3065L44.8804 19.6968L29.4891 38.9296L18.7535 29.9846L18.3694 29.6645L18.0493 30.0486L15.3186 33.3254L14.9986 33.7095L15.3826 34.0296L29.8552 46.0915Z" stroke="url(#paint1_linear_2_492)" stroke-opacity="0.5"/>
</g>
<defs>
<linearGradient id="paint0_linear_2_492" x1="0.00140368" y1="26.8168" x2="64.0014" y2="26.8168" gradientUnits="userSpaceOnUse">
<stop stop-color="#38D5FF"/>
<stop offset="0.505208" stop-color="#802DFF"/>
<stop offset="1" stop-color="#F41FFE"/>
</linearGradient>
<linearGradient id="paint1_linear_2_492" x1="0.00140356" y1="28.5464" x2="64.0014" y2="28.5464" gradientUnits="userSpaceOnUse">
<stop stop-color="white"/>
<stop offset="1" stop-color="white" stop-opacity="0"/>
</linearGradient>
<clipPath id="clip0_2_492">
<rect width="64" height="64" fill="white" transform="translate(0.00140381 0.00732422)"/>
</clipPath>
</defs>
</svg>
