<svg width="24" height="24" viewBox="0 0 24 24" fill="none" xmlns="http://www.w3.org/2000/svg">
<path d="M22.1458 3.14492C21.7858 2.83964 21.2203 2.79596 20.6357 3.03068H20.6347C20.0198 3.2774 3.22943 10.4793 2.54591 10.7736C2.42159 10.8168 1.33583 11.2219 1.44767 12.1243C1.54751 12.9379 2.42015 13.2748 2.52671 13.3137L6.79535 14.7753C7.07855 15.718 8.12255 19.1961 8.35343 19.9392C8.49743 20.4024 8.73215 21.011 9.14351 21.1363C9.50447 21.2755 9.86351 21.1483 10.0958 20.9659L12.7056 18.5452L16.9186 21.8308L17.0189 21.8908C17.305 22.0176 17.579 22.0809 17.8406 22.0809C18.0427 22.0809 18.2366 22.043 18.4219 21.9672C19.0531 21.708 19.3056 21.1065 19.332 21.0384L22.4789 4.6814C22.6709 3.8078 22.404 3.36332 22.1458 3.14492ZM10.56 15.36L9.11999 19.2L7.67999 14.4L18.72 6.23996L10.56 15.36Z" fill="url(#paint0_linear_2_292)"/>
<path d="M21.8224 3.52627L21.8229 3.5267C21.8862 3.58024 21.9584 3.66644 22.0026 3.8124C22.0478 3.96149 22.0723 4.20198 21.9905 4.57408L21.9904 4.57404L21.9879 4.58694L18.8512 20.8906C18.8449 20.9042 18.8365 20.9212 18.826 20.941C18.7991 20.9916 18.7594 21.0579 18.7056 21.1287C18.5969 21.2717 18.4422 21.4183 18.232 21.5046C18.1076 21.5555 17.9783 21.5809 17.8406 21.5809C17.6678 21.5809 17.4715 21.5408 17.248 21.4453L17.2017 21.4176L13.0131 18.151L12.6775 17.8893L12.3656 18.1787L9.77304 20.5833C9.63412 20.6864 9.46545 20.7245 9.32342 20.6698L9.30651 20.6633L9.28918 20.658C9.27496 20.6536 9.22582 20.6276 9.15504 20.5305L9.58816 19.3755L10.9952 15.6234L19.0926 6.57336L18.4228 5.83788L7.3828 13.9979L7.10005 14.2069L7.14829 14.3677L6.95732 14.3023L2.69413 12.8426C2.65325 12.8273 2.47084 12.755 2.2927 12.6157C2.10846 12.4716 1.97193 12.2914 1.94395 12.0634L1.94388 12.0628C1.91806 11.8544 2.01643 11.6813 2.22152 11.5164C2.42876 11.3498 2.66843 11.2603 2.71003 11.2459L2.72706 11.2399L2.74361 11.2328C3.42107 10.9412 19.6491 3.98054 20.7762 3.51305L20.822 3.49469C21.3 3.30274 21.6506 3.38057 21.8224 3.52627ZM22.4789 4.6814C22.6709 3.8078 22.404 3.36332 22.1458 3.14492L22.4789 4.6814Z" stroke="url(#paint1_linear_2_292)" stroke-opacity="0.5"/>
<defs>
<linearGradient id="paint0_linear_2_292" x1="1.43961" y1="10.9242" x2="22.5443" y2="10.9242" gradientUnits="userSpaceOnUse">
<stop stop-color="#38D5FF"/>
<stop offset="0.505208" stop-color="#802DFF"/>
<stop offset="1" stop-color="#F41FFE"/>
</linearGradient>
<linearGradient id="paint1_linear_2_292" x1="1.43961" y1="11.4431" x2="22.5443" y2="11.4431" gradientUnits="userSpaceOnUse">
<stop stop-color="white"/>
<stop offset="1" stop-color="white" stop-opacity="0"/>
</linearGradient>
</defs>
</svg>
