<svg width="52" height="52" viewBox="0 0 52 52" fill="none" xmlns="http://www.w3.org/2000/svg">
<path d="M26 52C40.3594 52 52 40.3594 52 26C52 11.6406 40.3594 0 26 0C11.6406 0 0 11.6406 0 26C0 40.3594 11.6406 52 26 52Z" fill="#EF0027"/>
<path d="M35.6395 16.108L12.1875 11.792L24.5294 42.849L41.7267 21.8962L35.6395 16.108ZM35.2625 18.0092L38.8505 21.4201L29.0387 23.1962L35.2625 18.0092ZM26.9067 22.8404L16.5652 14.2636L33.4685 17.3739L26.9067 22.8404ZM26.1706 24.3581L24.4839 38.3006L15.392 15.4157L26.1706 24.3565V24.3581ZM27.7306 25.0975L38.597 23.1312L26.1333 38.3136L27.7306 25.0975Z" fill="white"/>
</svg>
