<svg width="24" height="24" viewBox="0 0 24 24" fill="none" xmlns="http://www.w3.org/2000/svg">
<g clip-path="url(#clip0_2_307)">
<path d="M23.9632 2.34725C23.9525 2.19055 23.8959 2.04046 23.8005 1.91569C23.7051 1.79093 23.5751 1.69702 23.4266 1.64566C23.2782 1.59431 23.1179 1.58778 22.9658 1.6269C22.8137 1.66602 22.6765 1.74906 22.5712 1.86565C22.0481 2.45246 21.3671 2.87627 20.6096 3.08645C19.5881 2.13017 18.2409 1.5987 16.8416 1.60005C16.098 1.60047 15.3618 1.74735 14.6749 2.0323C13.9881 2.31725 13.3641 2.73469 12.8386 3.26079C12.3131 3.78689 11.8964 4.41135 11.6122 5.0985C11.328 5.78566 11.182 6.52206 11.1824 7.26565V7.96965C6.3968 7.60005 3.84 3.96325 3.1472 2.12005C3.09267 1.97399 2.99665 1.84704 2.87093 1.75481C2.74522 1.66259 2.59529 1.60911 2.43959 1.60095C2.28389 1.59279 2.1292 1.63031 1.99454 1.70889C1.85987 1.78747 1.7511 1.90368 1.6816 2.04325C0.00640373 5.39685 -0.251196 8.65125 0.966404 11.4225C2.032 13.8497 4.176 15.7825 7.216 17.0641C5.8352 18.0417 3.5104 19.2001 0.800004 19.2001C0.628227 19.1998 0.460943 19.2549 0.322901 19.3572C0.184859 19.4594 0.0833889 19.6033 0.0335024 19.7677C-0.016384 19.9321 -0.0120374 20.1082 0.0458991 20.2699C0.103836 20.4316 0.212285 20.5704 0.355204 20.6657C2.9552 22.4001 5.68 22.4001 8.2112 22.4001H8.288C16.0656 22.4001 22.368 16.0865 22.368 8.30085V7.53445C22.9488 6.94245 23.4016 6.33925 23.68 5.55685C23.9888 4.68325 24.0512 3.67205 23.9632 2.34725Z" fill="url(#paint0_linear_2_307)"/>
<path d="M20.2679 3.45146L20.4728 3.6433L22.5712 1.86565L22.9424 2.20068C22.9426 2.20038 22.9429 2.20009 22.9432 2.1998C22.9825 2.15653 23.0337 2.12572 23.0903 2.11115C23.1474 2.09648 23.2075 2.09892 23.2631 2.11818C23.3188 2.13744 23.3676 2.17266 23.4034 2.21944C23.439 2.26599 23.4601 2.32194 23.4643 2.38039C23.5506 3.67922 23.484 4.61044 23.2089 5.38923C22.9634 6.07934 22.5624 6.62234 22.0111 7.18429L21.868 7.33014V7.53445V8.30085C21.868 15.811 15.7888 21.9001 8.288 21.9001H8.2112C5.66741 21.9001 3.09099 21.8896 0.632672 20.2497L0.632589 20.2496C0.578998 20.2139 0.538328 20.1619 0.516602 20.1012C0.494875 20.0406 0.493246 19.9746 0.511953 19.9129C0.53066 19.8513 0.568711 19.7973 0.620478 19.759C0.672243 19.7206 0.734975 19.7 0.799393 19.7001H0.800004C3.64753 19.7001 6.07202 18.4866 7.50492 17.4721L8.23873 16.9526L7.41024 16.6033C4.45747 15.3585 2.42645 13.5043 1.42423 11.2215L1.42417 11.2213C0.280939 8.61939 0.501979 5.52364 2.1289 2.26669L2.12918 2.26613C2.15524 2.21379 2.19603 2.17021 2.24653 2.14074C2.29703 2.11127 2.35504 2.09721 2.41343 2.10026C2.47182 2.10332 2.52804 2.12338 2.57518 2.15796C2.62232 2.19255 2.65833 2.24015 2.67878 2.29493L2.67917 2.29597C3.41475 4.25299 6.10135 8.07872 11.1439 8.46817L11.6824 8.50976V7.96965V7.26565V7.26537C11.682 6.58743 11.8152 5.91606 12.0743 5.28958C12.3333 4.66311 12.7133 4.09379 13.1924 3.61415C13.6715 3.1345 14.2404 2.75392 14.8665 2.49413C15.4927 2.23434 16.164 2.10044 16.8419 2.10005L16.8421 2.10005C18.1143 2.09882 19.3392 2.58203 20.2679 3.45146Z" stroke="url(#paint1_linear_2_307)" stroke-opacity="0.5"/>
</g>
<defs>
<linearGradient id="paint0_linear_2_307" x1="-0.000976609" y1="10.3135" x2="23.9997" y2="10.3135" gradientUnits="userSpaceOnUse">
<stop stop-color="#38D5FF"/>
<stop offset="0.505208" stop-color="#802DFF"/>
<stop offset="1" stop-color="#F41FFE"/>
</linearGradient>
<linearGradient id="paint1_linear_2_307" x1="-0.000976654" y1="10.8756" x2="23.9997" y2="10.8756" gradientUnits="userSpaceOnUse">
<stop stop-color="white"/>
<stop offset="1" stop-color="white" stop-opacity="0"/>
</linearGradient>
<clipPath id="clip0_2_307">
<rect width="24" height="24" fill="white"/>
</clipPath>
</defs>
</svg>
