<svg width="52" height="52" viewBox="0 0 52 52" fill="none" xmlns="http://www.w3.org/2000/svg">
<path d="M26 52C40.3594 52 52 40.3594 52 26C52 11.6406 40.3594 0 26 0C11.6406 0 0 11.6406 0 26C0 40.3594 11.6406 52 26 52Z" fill="#26A17B"/>
<path fill-rule="evenodd" clip-rule="evenodd" d="M29.1233 28.2476V28.2443C28.9445 28.2573 28.0232 28.3126 25.9675 28.3126C24.3263 28.3126 23.1709 28.2638 22.7647 28.2443V28.2492C16.4467 27.9713 11.7309 26.8712 11.7309 25.5549C11.7309 24.2403 16.4467 23.1402 22.7647 22.8574V27.1539C23.1774 27.1832 24.3604 27.2531 25.9952 27.2531C27.9565 27.2531 28.9397 27.1718 29.1233 27.1556V22.8607C35.4283 23.1418 40.1327 24.2419 40.1327 25.5549C40.1327 26.8712 35.4283 27.9681 29.1233 28.2476ZM29.1233 22.4138V18.5691H37.921V12.7061H13.9669V18.5691H22.7647V22.4122C15.6147 22.7404 10.2375 24.1574 10.2375 25.8539C10.2375 27.5504 15.6147 28.9658 22.7647 29.2957V41.6164H29.1233V29.2924C36.2619 28.9642 41.626 27.5488 41.626 25.8539C41.626 24.1591 36.2619 22.7437 29.1233 22.4138Z" fill="white"/>
</svg>
