<svg width="64" height="65" viewBox="0 0 64 65" fill="none" xmlns="http://www.w3.org/2000/svg">
<g clip-path="url(#clip0_2_466)">
<path d="M34.1333 32.0074C34.1333 30.31 34.8076 28.6822 36.0078 27.4819C37.208 26.2817 38.8359 25.6074 40.5333 25.6074C42.2307 25.6074 43.8585 26.2817 45.0588 27.4819C46.259 28.6822 46.9333 30.31 46.9333 32.0074C46.9333 33.7048 46.259 35.3327 45.0588 36.5329C43.8585 37.7331 42.2307 38.4074 40.5333 38.4074C38.8359 38.4074 37.208 37.7331 36.0078 36.5329C34.8076 35.3327 34.1333 33.7048 34.1333 32.0074Z" fill="url(#paint0_linear_2_466)"/>
<path d="M34.6333 32.0074C34.6333 30.4426 35.2549 28.942 36.3613 27.8355C37.4678 26.729 38.9685 26.1074 40.5333 26.1074C42.098 26.1074 43.5987 26.729 44.7052 27.8355C45.8117 28.942 46.4333 30.4426 46.4333 32.0074C46.4333 33.5722 45.8117 35.0729 44.7052 36.1794C43.5987 37.2858 42.098 37.9074 40.5333 37.9074C38.9685 37.9074 37.4678 37.2858 36.3613 36.1794C35.2549 35.0729 34.6333 33.5722 34.6333 32.0074Z" stroke="url(#paint1_linear_2_466)" stroke-opacity="0.5"/>
<path fill-rule="evenodd" clip-rule="evenodd" d="M6.39994 0.00732422C4.70255 0.00732422 3.07469 0.681608 1.87446 1.88184C0.674223 3.08207 -6.10352e-05 4.70994 -6.10352e-05 6.40732L-6.10352e-05 53.3407C-6.10352e-05 55.038 0.674223 56.6659 1.87446 57.8661C3.07469 59.0664 4.70255 59.7407 6.39994 59.7407H8.53327V64.0073H12.7999V59.7407H51.1999V64.0073H55.4666V59.7407H57.5999C59.2973 59.7407 60.9252 59.0664 62.1254 57.8661C63.3257 56.6659 63.9999 55.038 63.9999 53.3407V6.40732C63.9999 4.70994 63.3257 3.08207 62.1254 1.88184C60.9252 0.681608 59.2973 0.00732422 57.5999 0.00732422L6.39994 0.00732422ZM8.53327 12.8073V25.6073H12.7999V12.8073H8.53327ZM40.5333 21.3407C37.7043 21.3407 34.9912 22.4645 32.9908 24.4649C30.9904 26.4652 29.8666 29.1784 29.8666 32.0073C29.8666 34.8363 30.9904 37.5494 32.9908 39.5498C34.9912 41.5502 37.7043 42.674 40.5333 42.674C43.3623 42.674 46.0754 41.5502 48.0757 39.5498C50.0761 37.5494 51.1999 34.8363 51.1999 32.0073C51.1999 29.1784 50.0761 26.4652 48.0757 24.4649C46.0754 22.4645 43.3623 21.3407 40.5333 21.3407ZM8.53327 46.9407V34.1407H12.7999V46.9407H8.53327Z" fill="url(#paint2_linear_2_466)"/>
<path d="M9.03327 59.7407V59.2407H8.53327H6.39994C4.83516 59.2407 3.33447 58.6191 2.22801 57.5126C1.12154 56.4061 0.499939 54.9054 0.499939 53.3407V6.40732C0.499939 4.84255 1.12154 3.34186 2.22801 2.23539C3.33447 1.12893 4.83516 0.507324 6.39994 0.507324H57.5999C59.1647 0.507324 60.6654 1.12893 61.7719 2.23539C62.8783 3.34186 63.4999 4.84255 63.4999 6.40732V53.3407C63.4999 54.9054 62.8783 56.4061 61.7719 57.5126C60.6654 58.6191 59.1647 59.2407 57.5999 59.2407H55.4666H54.9666V59.7407V63.5073H51.6999V59.7407V59.2407H51.1999H12.7999H12.2999V59.7407V63.5073H9.03327V59.7407ZM8.53327 12.3073H8.03327V12.8073V25.6073V26.1073H8.53327H12.7999H13.2999V25.6073V12.8073V12.3073H12.7999H8.53327ZM8.03327 46.9407V47.4407H8.53327H12.7999H13.2999V46.9407V34.1407V33.6407H12.7999H8.53327H8.03327V34.1407V46.9407ZM40.5333 20.8407C37.5717 20.8407 34.7314 22.0171 32.6372 24.1113C30.5431 26.2055 29.3666 29.0457 29.3666 32.0073C29.3666 34.9689 30.5431 37.8092 32.6372 39.9034C34.7314 41.9975 37.5717 43.174 40.5333 43.174C43.4949 43.174 46.3351 41.9975 48.4293 39.9034C50.5235 37.8092 51.6999 34.9689 51.6999 32.0073C51.6999 29.0457 50.5235 26.2055 48.4293 24.1113C46.3351 22.0171 43.4949 20.8407 40.5333 20.8407Z" stroke="url(#paint3_linear_2_466)" stroke-opacity="0.5"/>
</g>
<defs>
<linearGradient id="paint0_linear_2_466" x1="34.1333" y1="30.9696" x2="46.9333" y2="30.9696" gradientUnits="userSpaceOnUse">
<stop stop-color="#38D5FF"/>
<stop offset="0.505208" stop-color="#802DFF"/>
<stop offset="1" stop-color="#F41FFE"/>
</linearGradient>
<linearGradient id="paint1_linear_2_466" x1="34.1333" y1="31.3155" x2="46.9333" y2="31.3155" gradientUnits="userSpaceOnUse">
<stop stop-color="white"/>
<stop offset="1" stop-color="white" stop-opacity="0"/>
</linearGradient>
<linearGradient id="paint2_linear_2_466" x1="-6.11602e-05" y1="26.8181" x2="63.9999" y2="26.8181" gradientUnits="userSpaceOnUse">
<stop stop-color="#38D5FF"/>
<stop offset="0.505208" stop-color="#802DFF"/>
<stop offset="1" stop-color="#F41FFE"/>
</linearGradient>
<linearGradient id="paint3_linear_2_466" x1="-6.1279e-05" y1="28.5479" x2="63.9999" y2="28.5479" gradientUnits="userSpaceOnUse">
<stop stop-color="white"/>
<stop offset="1" stop-color="white" stop-opacity="0"/>
</linearGradient>
<clipPath id="clip0_2_466">
<rect width="64" height="64" fill="white" transform="translate(-6.10352e-05 0.00732422)"/>
</clipPath>
</defs>
</svg>
