<svg width="52" height="52" viewBox="0 0 52 52" fill="none" xmlns="http://www.w3.org/2000/svg">
<path d="M26 52C40.3594 52 52 40.3594 52 26C52 11.6406 40.3594 0 26 0C11.6406 0 0 11.6406 0 26C0 40.3594 11.6406 52 26 52Z" fill="#792EFF"/>
<path d="M37.4888 13H42.185L32.4106 22.6801C30.7017 24.3638 28.399 25.3076 26 25.3076C23.601 25.3076 21.2983 24.3638 19.5894 22.6801L9.80687 13H14.5113L21.9375 20.3499C23.0189 21.4173 24.4773 22.0158 25.9967 22.0158C27.5162 22.0158 28.9746 21.4173 30.056 20.3499L37.4888 13ZM14.4544 39.9149H9.75L19.5894 30.1762C21.2983 28.4925 23.601 27.5487 26 27.5487C28.399 27.5487 30.7017 28.4925 32.4106 30.1762L42.25 39.9132H37.5456L30.0625 32.5C28.9811 31.4326 27.5227 30.8341 26.0033 30.8341C24.4838 30.8341 23.0254 31.4326 21.944 32.5L14.4528 39.9149H14.4544Z" fill="white"/>
</svg>
