<svg width="269" height="204" viewBox="0 0 269 204" fill="none" xmlns="http://www.w3.org/2000/svg">
<path d="M259.634 91.8261V84.0771C259.634 84.0771 249.845 79.234 245.766 87.9516C241.687 96.6692 246.582 96.6692 249.029 96.6692C251.476 96.6692 257.187 94.7319 257.187 94.7319C257.187 94.7319 258.002 98.6064 255.555 100.544C254.739 110.23 244.135 112.167 244.135 112.167C244.135 112.167 244.135 105.387 243.319 104.418C219.242 93.1557 216.699 78.7937 216.431 75.8863L217.215 88.9202C217.215 88.9202 206.61 79.234 209.057 62.7674C199.268 59.8615 200.9 50.1753 200.9 50.1753L199.268 45.3322C199.268 45.3322 200.084 39.5205 222.109 50.1753C226.188 50.1753 239.24 52.1125 240.056 52.1125C240.872 52.1125 252.292 62.7674 252.292 62.7674C252.292 62.7674 268.607 67.6105 268.607 68.5791C266.602 88.9202 259.634 91.8261 259.634 91.8261Z" fill="url(#paint0_linear_864_43)"/>
<path d="M200.9 28.8656C224.557 28.8656 226.188 53.0812 226.188 53.0812C226.188 53.0812 198.584 21.9852 190.846 52.169C189.563 57.1744 189.37 62.528 190.347 67.6173C191.867 75.5314 195.021 80.9238 197.74 84.3032C200.542 87.7875 203.964 90.7844 207.566 93.2094C217.609 99.9709 237.714 108.964 241.687 116.042C249.029 124.759 247.398 143.163 247.398 143.163C247.398 143.163 244.135 129.602 235.977 123.791C224.557 114.104 177.243 109.261 177.243 61.7988C177.243 61.7988 177.243 28.8656 200.9 28.8656Z" fill="url(#paint1_linear_864_43)"/>
<path d="M165.597 112.36C161.519 107.517 137.862 67.8035 176.202 43.588C143.657 94.1925 196.493 112.46 223.545 124.126C226.258 125.296 228.822 126.807 230.858 128.948C252.669 151.879 241.479 200.735 224.331 204C236.568 154.362 132.151 122.046 83.2065 106.548C69.3387 102.674 50.5765 77.4898 50.5765 77.4898L71.7043 86.6884C73.928 87.6566 76.1098 88.7615 78.4335 89.4562C89.8521 92.8697 124.329 99.3219 132.151 109.454C132.967 95.8936 93.8113 85.2387 69.3387 79.427C54.6553 75.5525 37.5245 54.2428 37.5245 54.2428C37.5245 54.2428 57.1024 63.9291 65.26 64.8977C73.4176 65.8663 115.021 76.5211 126.441 88.1446C122.363 61.0232 32.63 64.8977 18.7623 27.1214C18.7623 27.1214 39.9718 39.7135 57.1025 43.588C62.8128 45.5252 105.232 55.2114 118.284 62.9604C114.536 46.0501 56.3789 38.9532 36.2064 29.6471C33.1336 28.2294 30.1963 26.5286 27.1713 25.0114C20.0134 21.4214 6.43775 13.2035 0 0C41.6033 27.1214 121.982 31.9645 135.415 50.3684C146.019 64.8977 150.098 92.0191 151.729 96.8622C154.177 108.486 165.597 112.36 165.597 112.36Z" fill="url(#paint2_linear_864_43)"/>
<path d="M245.933 66.2797L234.595 63.6634C234.595 63.6634 235.467 68.0239 242.444 70.6402L245.933 66.2797Z" fill="#0B0D32"/>
<defs>
<linearGradient id="paint0_linear_864_43" x1="0" y1="89.8264" x2="268.607" y2="89.8264" gradientUnits="userSpaceOnUse">
<stop stop-color="#38D5FF"/>
<stop offset="0.609375" stop-color="#802DFF"/>
<stop offset="1" stop-color="#F41FFE"/>
</linearGradient>
<linearGradient id="paint1_linear_864_43" x1="0" y1="89.8264" x2="268.607" y2="89.8264" gradientUnits="userSpaceOnUse">
<stop stop-color="#38D5FF"/>
<stop offset="0.609375" stop-color="#802DFF"/>
<stop offset="1" stop-color="#F41FFE"/>
</linearGradient>
<linearGradient id="paint2_linear_864_43" x1="0" y1="89.8264" x2="268.607" y2="89.8264" gradientUnits="userSpaceOnUse">
<stop stop-color="#38D5FF"/>
<stop offset="0.609375" stop-color="#802DFF"/>
<stop offset="1" stop-color="#F41FFE"/>
</linearGradient>
</defs>
</svg>
