<?xml version="1.0" encoding="utf-8"?><svg viewBox="0 0 24 24" xmlns="http://www.w3.org/2000/svg" xmlns:xlink="http://www.w3.org/1999/xlink"><style>:root>svg{display:none}:root>svg:target{display:block}</style><svg viewBox="0 0 24 24" id="arrow" xmlns="http://www.w3.org/2000/svg"><g clip-path="url(#aa)"><path fill-rule="evenodd" clip-rule="evenodd" d="M0 12a12 12 0 1124 0 12 12 0 01-24 0zm13.6-4.331L17.931 12 13.6 16.331 12.469 15.2l2.4-2.4H6.4v-1.6h8.469l-2.4-2.4L13.6 7.669z"/></g><defs><clipPath id="aa"><path d="M0 0h24v24H0z"/></clipPath></defs></svg><svg viewBox="0 0 24 24" id="calendar" xmlns="http://www.w3.org/2000/svg"><g clip-path="url(#ba)"><path fill-rule="evenodd" clip-rule="evenodd" d="M21.6 3.2h-2.4V0h-1.6v3.2H6.4V0H4.8v3.2H2.4A2.4 2.4 0 000 5.6v16A2.4 2.4 0 002.4 24h19.2a2.4 2.4 0 002.4-2.4v-16a2.4 2.4 0 00-2.4-2.4zM11.238 17.971l6.164-7.045-1.204-1.052-5.036 5.756-2.596-2.596-1.132 1.132 3.804 3.805z"/></g><defs><clipPath id="ba"><path d="M0 0h24v24H0z"/></clipPath></defs></svg><svg viewBox="0 0 24 24" id="clock" xmlns="http://www.w3.org/2000/svg"><g clip-path="url(#ca)"><path fill-rule="evenodd" clip-rule="evenodd" d="M0 12a12 12 0 1124 0 12 12 0 01-24 0zm11.2 0V4.8h1.6v6.869l4.566 4.565-1.132 1.132-4.8-4.8A.8.8 0 0111.2 12z"/></g><defs><clipPath id="ca"><path d="M0 0h24v24H0z"/></clipPath></defs></svg><svg viewBox="0 0 24 24" id="impove" xmlns="http://www.w3.org/2000/svg"><g clip-path="url(#da)"><path d="M4 1.6A2.4 2.4 0 001.6 4v12.8A2.4 2.4 0 004 19.2h16a2.4 2.4 0 002.4-2.4V4A2.4 2.4 0 0020 1.6H4zM0 22.4h24v-1.6H0v1.6z"/></g><defs><clipPath id="da"><path d="M0 0h24v24H0z"/></clipPath></defs></svg><svg viewBox="0 0 24 24" id="security" xmlns="http://www.w3.org/2000/svg"><path fill-rule="evenodd" clip-rule="evenodd" d="M11.603.106a.8.8 0 01.794 0l11.2 6.4A.8.8 0 0124 7.2v1.152a16.24 16.24 0 01-11.78 15.616.8.8 0 01-.44 0A16.243 16.243 0 010 8.352V7.2a.8.8 0 01.403-.694l11.2-6.4zm-.288 17.032l6.909-8.639-1.248-.998-5.891 7.361-4.173-3.476-1.024 1.228 5.427 4.524z"/></svg><svg viewBox="0 0 24 24" id="support" xmlns="http://www.w3.org/2000/svg"><g clip-path="url(#fa)"><path d="M4 9.6a3.984 3.984 0 00-2.262.7 10.403 10.403 0 0120.524 0A3.98 3.98 0 0020 9.6a2.4 2.4 0 00-2.4 2.4v6.4a2.4 2.4 0 001.515 2.232A2.4 2.4 0 0116.8 22.4h-4V24h4a4 4 0 003.933-3.267A4 4 0 0024 16.8V12a12 12 0 00-24 0v4.8a4 4 0 004 4 2.4 2.4 0 002.4-2.4V12A2.4 2.4 0 004 9.6z"/></g><defs><clipPath id="fa"><path d="M0 0h24v24H0z"/></clipPath></defs></svg><svg viewBox="0 0 24 24" id="tg" xmlns="http://www.w3.org/2000/svg"><path d="M22.146 3.145c-.36-.305-.926-.349-1.51-.114h-.001c-.615.246-17.406 7.448-18.09 7.743-.123.043-1.21.448-1.097 1.35.1.814.972 1.15 1.079 1.19l4.268 1.461c.284.943 1.328 4.421 1.558 5.164.144.463.38 1.072.79 1.197.361.14.72.012.953-.17l2.61-2.42 4.213 3.285.1.06c.286.127.56.19.822.19.202 0 .396-.038.58-.114.632-.259.885-.86.911-.929l3.147-16.357c.192-.873-.075-1.318-.333-1.536zM10.56 15.36L9.12 19.2l-1.44-4.8 11.04-8.16-8.16 9.12z"/><path d="M21.822 3.526a.58.58 0 01.18.286c.046.15.07.39-.011.762l-.003.013L18.85 20.89l-.025.05c-.027.05-.067.117-.12.188a1.15 1.15 0 01-.473.375 1.02 1.02 0 01-.392.077c-.173 0-.37-.04-.593-.136l-.046-.027-4.189-3.267-.335-.262-.312.29-2.593 2.404c-.139.103-.308.142-.45.087l-.016-.007-.018-.005c-.014-.004-.063-.03-.134-.128l.433-1.155 1.407-3.752 8.098-9.05-.67-.735-11.04 8.16-.283.209.048.16-.19-.065-4.264-1.46a1.606 1.606 0 01-.401-.226c-.185-.144-.321-.325-.35-.553-.025-.209.073-.382.279-.547.207-.166.446-.256.488-.27l.017-.006.017-.007c.677-.292 16.905-7.253 18.032-7.72l.046-.018c.478-.192.829-.114 1 .031z"/><defs><linearGradient id="ga" x1="1.44" y1="10.924" x2="22.544" y2="10.924" gradientUnits="userSpaceOnUse"><stop stop-color="#38D5FF"/><stop offset=".505" stop-color="#802DFF"/><stop offset="1" stop-color="#F41FFE"/></linearGradient><linearGradient id="gb" x1="1.44" y1="11.443" x2="22.544" y2="11.443" gradientUnits="userSpaceOnUse"><stop stop-color="#fff"/><stop offset="1" stop-color="#fff" stop-opacity="0"/></linearGradient></defs></svg><svg viewBox="0 0 24 24" id="trader" xmlns="http://www.w3.org/2000/svg"><path d="M1.6 0H0v24h24V4a.8.8 0 00-1.451-.464l-7.365 10.309L11.04 8.32a.8.8 0 00-1.306.037L1.6 20.558V0z"/></svg></svg>